<svg width="112" height="112" viewBox="0 0 112 112" fill="none" xmlns="http://www.w3.org/2000/svg">
<path d="M56.5836 98.6512L37.5156 56.1514L75.0312 56.2743L56.5836 98.6512Z" stroke="#78D9FF" stroke-width="0.4375" stroke-linecap="round" stroke-linejoin="round"/>
<path d="M56.5836 98.6512L37.5156 56.1514L75.0312 56.2743L56.5836 98.6512Z" fill="#78D9FF"/>
<path d="M56.5836 98.6514L14.875 47.0459L37.5156 56.1516L56.5836 98.6514Z" stroke="#51C0FB" stroke-width="0.4375" stroke-linecap="round" stroke-linejoin="round"/>
<path d="M56.5836 98.6514L14.875 47.0459L37.5156 56.1516L56.5836 98.6514Z" fill="#51C0FB"/>
<path d="M56.5859 98.6503L75.0403 56.2734L98.2211 47.3594L56.5859 98.6503Z" stroke="#33A9FB" stroke-width="0.4375" stroke-linecap="round" stroke-linejoin="round"/>
<path d="M56.5859 98.6503L75.0403 56.2734L98.2211 47.3594L56.5859 98.6503Z" fill="#33A9FB"/>
<path d="M56.5009 38.3516L37.5215 56.1429L75.0365 56.2764L56.5009 38.3516Z" stroke="#51AEF4" stroke-width="0.4375" stroke-linecap="round" stroke-linejoin="round"/>
<path d="M56.5009 38.3516L37.5215 56.1429L75.0365 56.2764L56.5009 38.3516Z" fill="#51AEF4"/>
<path d="M81.2115 34.6875L75.0371 56.2753L98.2202 47.3597L81.2115 34.6875Z" stroke="#79C6FE" stroke-width="0.4375" stroke-linecap="round" stroke-linejoin="round"/>
<path d="M81.2115 34.6875L75.0371 56.2753L98.2202 47.3597L81.2115 34.6875Z" fill="#79C6FE"/>
<path d="M31.6083 34.5645L14.875 47.0398L37.5215 56.1433L31.6083 34.5645Z" stroke="#79D0FE" stroke-width="0.4375" stroke-linecap="round" stroke-linejoin="round"/>
<path d="M31.6083 34.5645L14.875 47.0398L37.5215 56.1433L31.6083 34.5645Z" fill="#79D0FE"/>
<path d="M14.875 47.0399L31.6083 34.5646L25.9346 26.2578L14.875 47.0399Z" fill="#64B6EE"/>
<path d="M98.2157 47.361L81.209 34.6884L87.6343 26.4824L98.2157 47.361Z" fill="#66B2EF"/>
<path d="M37.5226 56.1433L31.6094 34.5645L56.502 38.3519L37.5226 56.1433Z" fill="#C4E9FF"/>
<path d="M75.0395 56.2753L56.5039 38.3505L81.2139 34.6875L75.0395 56.2753Z" fill="#6BBCF9"/>
<path d="M70.7504 19.7873L43.2063 19.7379L25.9344 26.26L31.6215 34.5656L56.4963 38.3504L81.2109 34.6914L87.6369 26.4843L70.7504 19.7873Z" fill="#C7E9FF"/>
<path d="M70.7504 19.7873L43.2063 19.7379L25.9344 26.26L31.6215 34.5656L56.4963 38.3504L81.2109 34.6914L87.6369 26.4843L70.7504 19.7873Z" stroke="#C7EAFF" stroke-width="0.444104" stroke-linecap="round" stroke-linejoin="round"/>
<g opacity="0.38">
<path d="M98.7268 47.1074L92.6018 35.8145L87.3653 26.1757L79.7229 23.2637L70.3987 19.5996H56.3438H42.8497L34.1953 23.0038L25.8555 26.3124L20.6055 36.4843L15.0547 47.2988L21.1935 54.914L56.631 98.7324L93.094 53.8202L98.7268 47.1074ZM92.4817 47.7302L87.6939 53.4363L56.7005 91.6115L26.5787 54.366L21.3606 47.893L26.0788 38.7006L30.5413 30.0545L37.6301 27.2423L44.9865 24.3487H56.4564H68.4028L76.3285 27.463L82.8248 29.9384L87.2757 38.1312L92.4817 47.7302Z" fill="#0068FF"/>
</g>
<g opacity="0.6">
<path d="M23.4062 50.751L38.0625 57.1523L75.4749 57.2328L88.6926 51.3191L75.2314 55.6269L38.4442 55.6512L23.4062 50.751Z" fill="white"/>
</g>
<path d="M98.7131 47.1113L92.5881 35.8184L87.3517 26.1796L79.7092 23.2676L70.385 19.6035H56.3301H42.8361L34.1816 23.0077L25.8418 26.3163L20.5918 36.4882L15.041 47.3027L21.1798 54.9179L56.6173 98.7363L93.0803 53.8241L98.7131 47.1113Z" stroke="#0058AF" stroke-width="1.75" stroke-linecap="round" stroke-linejoin="round"/>
</svg>
